<?xml version="1.0" encoding="UTF-8"?>
<svg width="139px" height="24px" viewBox="0 0 139 24" version="1.1" xmlns="http://www.w3.org/2000/svg" xmlns:xlink="http://www.w3.org/1999/xlink">
    <title>18+GR</title>
    <g id="Page-1" stroke="none" stroke-width="1" fill="none" fill-rule="evenodd">
        <g id="Mobile_Home-Footer" transform="translate(-204.000000, -1109.000000)" fill-rule="nonzero">
            <g id="License" transform="translate(71.000000, 1109.000000)">
                <g id="18+GR" transform="translate(133.000000, 0.000000)">
                    <g id="Group" transform="translate(45.000000, 0.000000)" fill="#C6C6C6">
                        <path d="M9.35443355,10.5290323 C8.65864924,10.7612903 7.26708061,11.1483871 5.87551198,11.1483871 C3.94277778,11.1483871 2.62851852,10.683871 1.62349673,9.75483871 C0.695784314,8.82580645 0.154618736,7.50967742 0.154618736,5.96129032 C0.154618736,2.47741935 2.70582789,0.541935484 6.10744009,0.541935484 C7.42169935,0.541935484 8.5040305,0.774193548 8.96788671,1.08387097 L8.5040305,2.86451613 C7.96286492,2.63225806 7.18977124,2.4 6.10744009,2.4 C4.17470588,2.4 2.62851852,3.48387097 2.62851852,5.80645161 C2.62851852,7.97419355 3.94277778,9.21290323 5.87551198,9.21290323 C6.41667756,9.21290323 6.88053377,9.13548387 7.03515251,9.05806452 L7.03515251,6.89032258 L5.41165577,6.89032258 L5.41165577,5.03225806 L9.27712418,5.03225806 L9.27712418,10.5290323 L9.35443355,10.5290323 Z" id="Path"></path>
                        <path d="M13.6064488,8.28387097 L12.8333551,10.9935484 L10.3594553,10.9935484 L13.5291394,0.541935484 L16.6215142,0.541935484 L19.8685076,10.9935484 L17.3172985,10.9935484 L16.5442048,8.28387097 L13.6064488,8.28387097 Z M16.2349673,6.58064516 L15.6164924,4.33548387 C15.4618736,3.71612903 15.2299455,2.94193548 15.0753268,2.32258065 L15.0753268,2.32258065 C14.9207081,2.94193548 14.7660893,3.71612903 14.6114706,4.33548387 L13.9156863,6.58064516 L16.2349673,6.58064516 Z" id="Shape"></path>
                        <path d="M30.1506536,6.96774194 C30.0733442,5.72903226 30.0733442,4.18064516 30.0733442,2.70967742 L29.9960349,2.70967742 C29.6867974,4.02580645 29.2229412,5.49677419 28.8363943,6.73548387 L27.5221351,10.8387097 L25.6667102,10.8387097 L24.5843791,6.81290323 C24.2751416,5.57419355 23.8885948,4.10322581 23.6566667,2.70967742 L23.6566667,2.70967742 C23.5793573,4.10322581 23.5793573,5.72903226 23.5020479,7.04516129 L23.3474292,10.9935484 L21.1827669,10.9935484 L21.8785512,0.541935484 L25.0482353,0.541935484 L26.0532571,4.02580645 C26.3624946,5.26451613 26.671732,6.50322581 26.9036601,7.74193548 L26.9809695,7.74193548 C27.290207,6.50322581 27.5994444,5.18709677 27.9859913,4.02580645 L29.0683224,0.541935484 L32.1606972,0.541935484 L32.7018627,10.9935484 L30.3825817,10.9935484 L30.1506536,6.96774194 Z" id="Path"></path>
                        <polygon id="Path" points="36.7219499 0.541935484 36.7219499 10.9935484 34.3253595 10.9935484 34.3253595 0.541935484"></polygon>
                        <path d="M38.8093028,10.9935484 L38.8093028,0.541935484 L41.5924401,0.541935484 L43.7571024,4.33548387 C44.3755773,5.41935484 44.9940523,6.73548387 45.4579085,7.89677419 L45.5352179,7.89677419 C45.3805991,6.50322581 45.3032898,5.10967742 45.3032898,3.56129032 L45.3032898,0.541935484 L47.4679521,0.541935484 L47.4679521,10.9935484 L44.9940523,10.9935484 L42.7520806,6.96774194 C42.1336057,5.88387097 41.4378214,4.49032258 40.9739651,3.2516129 L40.8966558,3.2516129 C40.9739651,4.64516129 40.9739651,6.11612903 40.9739651,7.81935484 L40.9739651,10.9935484 L38.8093028,10.9935484 Z" id="Path"></path>
                        <path d="M58.1366449,10.5290323 C57.4408606,10.7612903 56.0492919,11.1483871 54.6577233,11.1483871 C52.7249891,11.1483871 51.4107298,10.683871 50.4057081,9.75483871 C49.4779956,8.82580645 48.9368301,7.50967742 48.9368301,5.96129032 C48.9368301,2.47741935 51.4880392,0.541935484 54.8896514,0.541935484 C56.2039107,0.541935484 57.2862418,0.774193548 57.750098,1.08387097 L57.2862418,2.94193548 C56.7450763,2.70967742 55.9719826,2.47741935 54.8896514,2.47741935 C52.9569172,2.47741935 51.4107298,3.56129032 51.4107298,5.88387097 C51.4107298,8.0516129 52.7249891,9.29032258 54.6577233,9.29032258 C55.1988889,9.29032258 55.6627451,9.21290323 55.8173638,9.13548387 L55.8173638,6.89032258 L54.1938671,6.89032258 L54.1938671,5.03225806 L58.0593355,5.03225806 L58.0593355,10.5290323 L58.1366449,10.5290323 Z" id="Path"></path>
                        <path d="M0.618474946,13.083871 C1.39156863,12.9290323 2.47389978,12.8516129 3.78815904,12.8516129 C5.33434641,12.8516129 6.41667756,13.083871 7.18977124,13.7032258 C7.80824619,14.1677419 8.11748366,14.9419355 8.11748366,15.8709677 C8.11748366,17.1870968 7.18977124,18.116129 6.26205882,18.4258065 L6.26205882,18.5032258 C6.95784314,18.8129032 7.42169935,19.5096774 7.65362745,20.4387097 C7.96286492,21.6 8.2721024,22.9935484 8.5040305,23.3806452 L6.10744009,23.3806452 C5.95282135,23.0709677 5.72089325,22.2193548 5.41165577,20.9806452 C5.1024183,19.6645161 4.71587146,19.3548387 3.71084967,19.2774194 L3.01506536,19.2774194 L3.01506536,23.3806452 L0.695784314,23.3806452 L0.695784314,13.083871 L0.618474946,13.083871 Z M2.93775599,17.5741935 L3.86546841,17.5741935 C5.02510893,17.5741935 5.72089325,16.9548387 5.72089325,16.1032258 C5.72089325,15.1741935 5.1024183,14.6322581 4.02008715,14.6322581 C3.47892157,14.6322581 3.09237473,14.7096774 2.93775599,14.7096774 L2.93775599,17.5741935 L2.93775599,17.5741935 Z" id="Shape"></path>
                        <polygon id="Path" points="16.0030392 18.9677419 12.1375708 18.9677419 12.1375708 21.4451613 16.3895861 21.4451613 16.3895861 23.3806452 9.74098039 23.3806452 9.74098039 12.9290323 16.2349673 12.9290323 16.2349673 14.8645161 12.1375708 14.8645161 12.1375708 17.0322581 16.0030392 17.0322581"></polygon>
                        <path d="M18.0903922,20.9806452 C18.7088671,21.2903226 19.7138889,21.6 20.7189107,21.6 C21.8012418,21.6 22.3424074,21.1354839 22.3424074,20.4387097 C22.3424074,19.8193548 21.8785512,19.4322581 20.5642919,18.9677419 C18.8634858,18.3483871 17.7038453,17.4193548 17.7038453,15.8709677 C17.7038453,14.0903226 19.1727233,12.6967742 21.6466231,12.6967742 C22.8062636,12.6967742 23.6566667,12.9290323 24.2751416,13.2387097 L23.733976,15.1741935 C23.4247386,15.0193548 22.7289542,14.7096774 21.6466231,14.7096774 C20.5642919,14.7096774 20.1004357,15.1741935 20.1004357,15.716129 C20.1004357,16.4129032 20.7189107,16.6451613 22.0331699,17.1870968 C23.8885948,17.883871 24.7389978,18.8129032 24.7389978,20.283871 C24.7389978,22.0645161 23.4247386,23.5354839 20.5642919,23.5354839 C19.4046514,23.5354839 18.1677015,23.2258065 17.6265359,22.916129 L18.0903922,20.9806452 Z" id="Path"></path>
                        <path d="M26.3624946,13.083871 C27.0582789,12.9290323 28.14061,12.8516129 29.5321786,12.8516129 C31.0010566,12.8516129 32.0060784,13.1612903 32.7018627,13.7032258 C33.3976471,14.2451613 33.7841939,15.0967742 33.7841939,16.1032258 C33.7841939,17.1096774 33.4749564,17.9612903 32.8564815,18.5806452 C32.0833878,19.3548387 30.8464379,19.6645161 29.4548693,19.6645161 C29.1456318,19.6645161 28.8363943,19.6645161 28.6817756,19.5870968 L28.6817756,23.3032258 L26.3624946,23.3032258 L26.3624946,13.083871 L26.3624946,13.083871 Z M28.759085,17.8064516 C28.9910131,17.883871 29.2229412,17.883871 29.5321786,17.883871 C30.7691285,17.883871 31.5422222,17.2645161 31.5422222,16.1806452 C31.5422222,15.2516129 30.8464379,14.6322581 29.6867974,14.6322581 C29.2229412,14.6322581 28.9137037,14.7096774 28.6817756,14.7096774 L28.6817756,17.8064516 L28.759085,17.8064516 Z" id="Shape"></path>
                        <path d="M44.9167429,18.0387097 C44.9167429,21.4451613 42.82939,23.5354839 39.8143246,23.5354839 C36.7219499,23.5354839 34.9438344,21.2129032 34.9438344,18.1935484 C34.9438344,15.0967742 36.953878,12.6967742 40.0462527,12.6967742 C43.1386275,12.7741935 44.9167429,15.1741935 44.9167429,18.0387097 Z M37.4177342,18.1935484 C37.4177342,20.2064516 38.3454466,21.6774194 39.9689434,21.6774194 C41.5924401,21.6774194 42.4428431,20.1290323 42.4428431,18.116129 C42.4428431,16.2580645 41.5151307,14.6322581 39.891634,14.6322581 C38.3454466,14.6322581 37.4177342,16.1806452 37.4177342,18.1935484 Z" id="Shape"></path>
                        <path d="M46.4629303,23.3806452 L46.4629303,12.9290323 L49.2460675,12.9290323 L51.4107298,16.7225806 C52.0292048,17.8064516 52.6476797,19.1225806 53.1115359,20.283871 L53.1888453,20.283871 C53.0342266,18.8903226 52.9569172,17.4967742 52.9569172,15.9483871 L52.9569172,12.9290323 L55.1215795,12.9290323 L55.1215795,23.3806452 L52.6476797,23.3806452 L50.4057081,19.3548387 C49.7872331,18.2709677 49.0914488,16.8774194 48.6275926,15.6387097 L48.5502832,15.6387097 C48.6275926,17.0322581 48.6275926,18.5032258 48.6275926,20.2064516 L48.6275926,23.3806452 L46.4629303,23.3806452 L46.4629303,23.3806452 Z" id="Path"></path>
                        <path d="M57.2089325,20.9806452 C57.8274074,21.2903226 58.8324292,21.6 59.837451,21.6 C60.9197821,21.6 61.4609477,21.1354839 61.4609477,20.4387097 C61.4609477,19.8193548 60.9970915,19.4322581 59.6828322,18.9677419 C57.9820261,18.3483871 56.8223856,17.4193548 56.8223856,15.8709677 C56.8223856,14.0903226 58.2912636,12.6967742 60.7651634,12.6967742 C61.9248039,12.6967742 62.775207,12.9290323 63.3936819,13.2387097 L62.8525163,15.1741935 C62.4659695,14.9419355 61.6928758,14.7096774 60.687854,14.7096774 C59.6828322,14.7096774 59.1416667,15.1741935 59.1416667,15.716129 C59.1416667,16.4129032 59.7601416,16.6451613 61.0744009,17.1870968 C62.9298257,17.883871 63.7802288,18.8129032 63.7802288,20.283871 C63.7802288,22.0645161 62.4659695,23.5354839 59.6055229,23.5354839 C58.4458824,23.5354839 57.2089325,23.2258065 56.6677669,22.916129 L57.2089325,20.9806452 Z" id="Path"></path>
                        <polygon id="Path" points="67.8776253 12.9290323 67.8776253 23.3806452 65.4810349 23.3806452 65.4810349 12.9290323"></polygon>
                        <path d="M69.8876688,13.083871 C70.5061438,12.9290323 71.7430937,12.8516129 72.9027342,12.8516129 C74.3716122,12.8516129 75.2220153,13.0064516 75.9951089,13.4709677 C76.6908932,13.8580645 77.2320588,14.5548387 77.2320588,15.483871 C77.2320588,16.4129032 76.6908932,17.2645161 75.5312527,17.7290323 L75.5312527,17.7290323 C76.6908932,18.0387097 77.6186057,18.9677419 77.6186057,20.283871 C77.6186057,21.2129032 77.1547495,21.9870968 76.5362745,22.5290323 C75.7631808,23.1483871 74.5262309,23.4580645 72.438878,23.4580645 C71.2792375,23.4580645 70.4288344,23.3806452 69.8876688,23.3032258 L69.8876688,13.083871 L69.8876688,13.083871 Z M72.2069499,17.1096774 L72.9800436,17.1096774 C74.2169935,17.1096774 74.9127778,16.5677419 74.9127778,15.7935484 C74.9127778,15.0193548 74.2943028,14.5548387 73.2119717,14.5548387 C72.6708061,14.5548387 72.438878,14.5548387 72.2069499,14.6322581 L72.2069499,17.1096774 Z M72.2069499,21.6774194 C72.438878,21.6774194 72.7481155,21.6774194 73.1346623,21.6774194 C74.2169935,21.6774194 75.1447059,21.2903226 75.1447059,20.2064516 C75.1447059,19.1225806 74.2169935,18.7354839 73.0573529,18.7354839 L72.2842593,18.7354839 L72.2842593,21.6774194 L72.2069499,21.6774194 Z" id="Shape"></path>
                        <polygon id="Path" points="79.2421024 12.9290323 81.6386928 12.9290323 81.6386928 21.3677419 85.8133987 21.3677419 85.8133987 23.3806452 79.3194118 23.3806452 79.3194118 12.9290323"></polygon>
                        <polygon id="Path" points="93.3124074 18.9677419 89.446939 18.9677419 89.446939 21.4451613 93.6989542 21.4451613 93.6989542 23.3806452 87.0503486 23.3806452 87.0503486 12.9290323 93.4670261 12.9290323 93.4670261 14.8645161 89.3696296 14.8645161 89.3696296 17.0322581 93.235098 17.0322581 93.235098 18.9677419"></polygon>
                    </g>
                    <g id="Group" fill="#CC3737">
                        <path d="M18.2915909,10.3741935 C19.2296212,10.3741935 19.6986364,9.90967742 19.6986364,9.05806452 C19.6986364,8.20645161 19.2296212,7.66451613 18.2915909,7.66451613 C17.4317298,7.66451613 16.8845455,8.12903226 16.8845455,9.05806452 C16.8845455,9.83225806 17.3535606,10.3741935 18.2915909,10.3741935 Z" id="Path"></path>
                        <path d="M18.2915909,13.0064516 C17.1972222,13.0064516 16.6500379,13.6258065 16.6500379,14.6322581 C16.6500379,15.716129 17.3535606,16.2580645 18.2915909,16.2580645 C19.3077904,16.2580645 19.9331439,15.716129 19.9331439,14.6322581 C19.9331439,13.5483871 19.3077904,13.0064516 18.2915909,13.0064516 Z" id="Path"></path>
                        <path d="M29.0007702,0.15483871 L12.4289015,0.15483871 C5.7845202,0.15483871 0.39084596,5.41935484 0.39084596,12 L0.39084596,12 C0.39084596,18.5806452 5.7845202,23.8451613 12.3507323,23.8451613 L28.922601,23.8451613 C35.5669823,23.8451613 40.8824874,18.5032258 40.8824874,12 L40.8824874,12 C40.9606566,5.41935484 35.5669823,0.15483871 29.0007702,0.15483871 Z M11.5690404,18.6580645 L7.58241162,18.6580645 L7.58241162,9.36774194 C6.95705808,9.52258065 6.09719697,9.6 5.55001263,9.6 L5.55001263,6.96774194 C6.95705808,6.81290323 8.05142677,6.11612903 8.75494949,5.34193548 L11.5690404,5.34193548 L11.5690404,18.6580645 Z M18.1352525,18.8903226 C14.9303157,18.8903226 12.7415783,17.2645161 12.7415783,14.7870968 C12.7415783,13.2387097 13.7577778,12.2322581 14.8521465,11.6903226 C13.7577778,10.9935484 13.2105934,10.2193548 13.2105934,8.90322581 C13.2105934,6.81290323 14.7739773,5.10967742 18.2915909,5.10967742 C21.4183586,5.10967742 23.3725884,6.58064516 23.3725884,8.90322581 C23.3725884,10.4516129 22.5908965,11.1483871 21.6528662,11.6129032 C22.5908965,12 23.8416035,13.0064516 23.8416035,14.7096774 C23.9197727,17.2645161 21.8873737,18.8903226 18.1352525,18.8903226 Z M35.8014899,13.2387097 L32.0493687,13.2387097 L32.0493687,17.1096774 L29.3916162,17.1096774 L29.3916162,13.2387097 L25.5613258,13.2387097 L25.5613258,10.6064516 L29.3916162,10.6064516 L29.3916162,6.81290323 L32.0493687,6.81290323 L32.0493687,10.6064516 L35.8014899,10.6064516 L35.8014899,13.2387097 Z" id="Shape"></path>
                    </g>
                </g>
            </g>
        </g>
    </g>
</svg>